<?xml version="1.0" standalone="no"?>
<!DOCTYPE svg PUBLIC "-//W3C//DTD SVG 20010904//EN"
 "http://www.w3.org/TR/2001/REC-SVG-20010904/DTD/svg10.dtd">
<svg version="1.0" xmlns="http://www.w3.org/2000/svg"
 width="1024.000000pt" height="1024.000000pt" viewBox="0 0 1024.000000 1024.000000"
 preserveAspectRatio="xMidYMid meet">

<g transform="translate(0.000000,1024.000000) scale(0.100000,-0.100000)"
fill="#000000" stroke="none">
<path d="M1665 7061 c-73 -18 -139 -72 -178 -145 l-22 -41 0 -1355 0 -1355 27
-50 c56 -106 128 -145 284 -153 l102 -5 4 -116 c4 -135 20 -174 92 -238 58
-51 101 -63 223 -63 l100 0 5 -118 c5 -107 8 -124 34 -171 35 -66 84 -107 148
-126 75 -23 5777 -23 5852 0 61 18 116 62 152 123 l27 47 3 1349 c3 1485 6
1400 -58 1478 -17 20 -56 49 -86 64 -48 24 -73 28 -165 32 l-109 5 0 111 c0
100 -3 117 -26 164 -30 60 -87 113 -141 131 -21 7 -81 15 -134 18 l-97 6 -4
106 c-4 94 -8 113 -34 161 -16 31 -48 69 -72 87 -89 67 56 63 -2082 63 -2135
0 -1961 5 -1996 -61 -19 -38 -11 -79 23 -113 l26 -26 1929 0 c2060 0 1974 2
1992 -45 3 -9 6 -600 6 -1314 l0 -1298 -26 -24 -26 -24 -2601 -3 c-1431 -2
-2721 -1 -2866 3 -239 7 -265 9 -282 26 -18 18 -19 59 -19 1327 l0 1309 21 19
c20 18 52 19 798 24 427 3 777 6 779 8 14 12 42 72 42 90 0 33 -28 78 -57 91
-27 13 -1537 14 -1588 2z m6200 -627 c46 -18 45 20 45 -1344 0 -1364 1 -1326
-45 -1344 -9 -3 -1303 -6 -2876 -6 l-2860 0 -24 25 c-23 22 -25 32 -25 109 l0
86 2703 2 2702 3 45 21 c25 11 64 42 88 68 84 91 77 -18 80 1254 l2 1132 74 0
c41 0 82 -3 91 -6z m434 -450 l21 -27 0 -1299 0 -1299 -25 -24 -24 -25 -2857
0 -2858 0 -23 22 c-21 19 -23 30 -23 115 l0 93 2703 2 2702 3 40 22 c53 28 99
78 124 133 20 44 21 60 21 1178 l0 1132 89 0 c85 0 91 -1 110 -26z"/>
<path d="M2525 6117 c-22 -13 -86 -53 -142 -90 -130 -84 -156 -129 -116 -197
33 -57 96 -65 166 -20 l46 29 3 -444 3 -444 29 -30 c16 -16 42 -33 57 -36 37
-8 100 21 116 55 10 19 13 158 13 579 l0 553 -34 34 c-41 41 -82 44 -141 11z"/>
<path d="M3223 6115 c-76 -21 -129 -50 -185 -103 -61 -57 -90 -105 -120 -202
-21 -69 -23 -93 -23 -295 0 -182 3 -231 18 -285 68 -240 268 -378 498 -343
194 30 331 167 376 375 22 102 21 375 -2 483 -32 153 -117 280 -223 334 -97
50 -234 64 -339 36z m191 -207 c64 -20 120 -83 146 -165 18 -57 22 -94 23
-233 1 -183 -12 -252 -61 -323 -74 -109 -234 -123 -323 -30 -76 79 -94 160
-86 397 7 223 36 293 141 342 57 27 99 30 160 12z"/>
<path d="M4275 6116 c-157 -39 -273 -162 -316 -336 -10 -38 -14 -123 -14 -280
0 -241 7 -285 60 -390 82 -163 270 -253 458 -222 182 31 309 151 363 343 24
83 30 381 11 492 -37 209 -162 356 -338 396 -58 14 -162 12 -224 -3z m179
-207 c56 -16 121 -80 148 -147 20 -52 22 -74 23 -247 0 -156 -3 -201 -18 -248
-45 -147 -187 -212 -317 -147 -47 24 -74 55 -102 115 -21 45 -23 68 -26 230
-4 189 6 272 38 335 49 95 149 138 254 109z"/>
<path d="M5324 6120 c-70 -14 -156 -64 -212 -124 -100 -106 -132 -223 -132
-486 0 -196 15 -290 62 -390 124 -260 487 -320 693 -114 110 109 145 232 145
502 0 199 -13 279 -59 378 -86 183 -284 276 -497 234z m169 -211 c53 -14 110
-69 137 -131 32 -74 46 -239 33 -383 -15 -159 -51 -233 -133 -275 -117 -59
-236 -16 -297 108 -27 55 -28 63 -31 236 -4 189 5 272 38 336 49 95 149 138
253 109z"/>
<path d="M6340 6115 c-163 -46 -272 -175 -305 -362 -9 -46 -14 -149 -15 -251
0 -264 30 -376 131 -487 158 -172 457 -178 623 -12 98 97 131 194 142 412 8
165 -8 333 -40 426 -43 124 -131 216 -250 262 -69 26 -212 32 -286 12z m205
-214 c55 -25 109 -87 131 -152 16 -46 19 -84 19 -259 0 -193 -1 -208 -23 -255
-28 -60 -55 -91 -102 -115 -118 -59 -246 -11 -301 112 -21 49 -24 69 -27 244
-5 278 22 364 131 419 60 30 116 32 172 6z"/>
</g>
</svg>
