<?xml version="1.0" standalone="no"?>
<!DOCTYPE svg PUBLIC "-//W3C//DTD SVG 20010904//EN"
 "http://www.w3.org/TR/2001/REC-SVG-20010904/DTD/svg10.dtd">
<svg version="1.0" xmlns="http://www.w3.org/2000/svg"
 width="939.000000pt" height="939.000000pt" viewBox="0 0 939.000000 939.000000"
 preserveAspectRatio="xMidYMid meet">

<g transform="translate(0.000000,939.000000) scale(0.100000,-0.100000)"
fill="#000000" stroke="none">
<path d="M4470 9209 c-247 -29 -514 -164 -675 -342 -115 -127 -205 -292 -250
-458 -21 -77 -29 -147 -45 -384 -11 -159 -27 -333 -35 -385 -9 -52 -13 -105
-10 -117 2 -11 34 -42 69 -67 171 -122 275 -317 276 -515 l0 -74 38 6 c20 3
93 11 162 18 l125 12 100 -38 c147 -55 233 -68 400 -62 148 5 234 23 361 73
48 20 68 23 78 15 24 -20 176 -34 306 -28 156 8 326 42 512 105 125 41 144 50
152 73 19 57 0 96 -99 200 -172 179 -214 306 -250 749 -9 107 -23 236 -31 287
-38 244 -142 453 -308 619 -182 181 -392 283 -646 314 -95 11 -123 11 -230 -1z
m428 -885 c27 -51 145 -141 277 -214 89 -49 146 -87 163 -108 25 -32 26 -40
26 -160 1 -144 -19 -232 -78 -350 -155 -308 -513 -486 -838 -417 -154 32 -269
97 -393 220 -74 73 -99 106 -133 175 -61 125 -85 238 -80 376 5 126 15 151 71
178 19 9 59 16 89 16 139 0 368 60 520 136 84 42 247 147 318 206 l35 28 6
-32 c3 -18 11 -43 17 -54z"/>
<path d="M7480 7651 c-88 -28 -176 -80 -222 -130 -23 -25 -207 -218 -408 -429
-201 -211 -376 -401 -389 -424 l-24 -40 -306 7 c-385 8 -722 22 -872 36 -139
13 -137 13 -231 -81 -120 -121 -240 -178 -393 -187 -182 -10 -310 42 -454 184
-51 52 -102 98 -114 104 -23 13 -123 5 -237 -18 -73 -15 -110 -34 -110 -57 0
-6 -36 -47 -81 -91 -44 -44 -189 -194 -322 -334 -223 -235 -242 -252 -255
-235 -7 11 -38 61 -68 112 -52 88 -54 95 -39 112 26 29 55 117 55 168 0 41 5
52 33 78 68 64 87 74 142 74 162 0 333 120 396 277 20 48 24 76 24 168 0 103
-2 114 -32 178 -44 92 -119 169 -207 212 -237 116 -505 26 -621 -208 -31 -63
-38 -88 -42 -159 -3 -45 0 -102 5 -125 l10 -43 -112 0 c-170 0 -204 -13 -375
-148 -123 -97 -176 -194 -192 -347 -4 -44 -8 -81 -8 -82 -1 -1 -45 -38 -98
-83 -140 -118 -153 -134 -153 -193 0 -42 5 -54 34 -83 61 -61 104 -49 265 73
25 18 48 30 52 26 3 -5 30 -68 58 -141 127 -328 303 -727 367 -829 51 -82 122
-140 239 -194 64 -31 71 -32 156 -26 98 7 188 34 252 74 23 15 101 83 172 152
136 131 370 344 385 349 11 4 24 -42 54 -208 l25 -135 -47 -68 c-80 -116 -140
-212 -211 -345 -38 -70 -92 -170 -121 -222 -190 -344 -520 -1059 -520 -1125 0
-44 37 -87 103 -119 62 -30 370 -116 547 -152 69 -14 126 -27 128 -28 7 -7 31
-161 41 -256 74 -738 152 -1464 171 -1583 16 -100 58 -223 93 -269 74 -97 215
-160 363 -162 76 -1 85 2 170 43 225 112 274 249 245 694 -19 299 -42 768 -48
992 l-6 210 20 -25 c11 -14 217 -313 458 -665 642 -939 600 -884 745 -954 64
-31 84 -36 140 -35 134 3 242 40 320 110 45 41 115 147 136 206 18 53 18 159
-1 233 -17 62 -175 337 -455 790 -75 121 -173 281 -217 355 -45 74 -116 184
-157 244 -42 61 -74 111 -72 113 1 2 60 14 130 28 248 47 396 103 457 173 45
50 38 82 -67 312 -257 566 -637 1279 -771 1447 -18 23 -33 49 -33 59 0 9 16
87 35 173 19 86 46 227 59 315 14 87 27 161 30 163 3 3 164 13 358 24 814 42
827 43 917 89 138 69 115 46 1025 1060 163 182 198 235 219 336 14 68 -3 196
-35 263 -29 61 -150 182 -215 215 -46 23 -64 26 -145 25 -60 0 -113 -6 -148
-18z m216 -283 c88 -92 99 -119 69 -181 -17 -35 -354 -415 -590 -664 -82 -87
-218 -232 -301 -323 -161 -176 -196 -202 -295 -220 -30 -5 -189 -14 -354 -20
-165 -6 -349 -15 -410 -20 -60 -6 -151 -10 -201 -10 l-92 0 -7 118 c-3 64 -10
159 -15 210 -5 52 -6 100 -4 107 4 10 77 14 327 19 177 3 401 5 497 3 170 -2
177 -1 225 24 39 20 133 113 430 427 411 436 526 548 583 568 66 23 84 18 138
-38z m-5056 -844 c65 -32 127 -139 115 -196 -4 -17 -21 -63 -37 -102 -22 -50
-29 -80 -25 -106 6 -46 235 -431 283 -477 45 -44 93 -45 157 -2 25 16 151 141
279 276 l233 245 7 -33 c12 -58 68 -428 68 -452 0 -17 -52 -71 -207 -213 -306
-281 -414 -374 -456 -396 -57 -29 -128 -34 -181 -14 -49 19 -118 86 -141 138
-43 96 -435 1019 -446 1050 -21 61 5 109 105 198 117 104 172 122 246 84z
m1643 -3621 c109 -3 200 -10 203 -14 7 -12 21 -315 34 -729 6 -195 18 -487 26
-649 21 -379 18 -435 -20 -485 -33 -43 -114 -86 -164 -86 -67 0 -163 74 -176
137 -3 15 -29 252 -56 526 -28 274 -73 678 -100 897 -28 219 -50 404 -50 411
0 8 15 10 53 5 28 -3 141 -9 250 -13z m1184 -88 c40 -55 179 -278 309 -495
131 -217 299 -494 374 -616 176 -283 173 -276 168 -336 -7 -64 -46 -114 -120
-151 -53 -27 -58 -28 -99 -15 -63 18 -137 98 -242 258 -48 74 -169 252 -268
394 -100 143 -274 395 -387 560 -113 166 -232 337 -264 380 -32 44 -56 81 -54
84 7 6 408 40 460 38 l50 -1 73 -100z"/>
<path d="M7175 5437 c-21 -17 -33 -47 -56 -137 -74 -294 -217 -437 -507 -510
-40 -10 -84 -25 -97 -34 -32 -21 -42 -74 -21 -114 18 -34 21 -36 143 -67 137
-35 215 -77 303 -165 102 -101 158 -210 190 -371 13 -69 45 -103 96 -103 55 0
78 32 104 147 60 268 229 442 490 502 120 28 150 50 150 110 0 60 -23 77 -143
106 -170 42 -313 136 -396 259 -49 74 -78 148 -102 265 -14 71 -24 95 -44 113
-33 28 -77 28 -110 -1z"/>
<path d="M3355 1973 c-16 -2 -104 -13 -195 -24 -557 -69 -1097 -220 -1395
-392 -192 -110 -309 -261 -322 -414 -17 -209 128 -387 447 -544 400 -197 1151
-354 1990 -416 338 -24 1159 -25 1505 0 565 40 735 58 1107 122 409 70 710
152 970 263 326 140 484 289 519 489 13 73 -8 184 -47 252 -39 65 -147 175
-226 227 -75 50 -263 142 -408 199 -119 47 -463 145 -508 145 -69 0 -112 -46
-112 -118 0 -72 22 -86 265 -167 440 -146 694 -283 754 -408 26 -55 26 -89 0
-144 -70 -144 -350 -282 -797 -392 -712 -176 -1252 -231 -2252 -231 -712 0
-888 11 -1410 86 -614 88 -1067 213 -1325 366 -122 73 -215 177 -215 240 1 72
87 168 214 239 256 142 930 320 1484 392 126 17 156 31 179 85 12 29 13 43 4
73 -18 59 -51 79 -130 78 -36 -1 -79 -4 -96 -6z"/>
</g>
</svg>
