<?xml version="1.0" standalone="no"?>
<!DOCTYPE svg PUBLIC "-//W3C//DTD SVG 20010904//EN"
 "http://www.w3.org/TR/2001/REC-SVG-20010904/DTD/svg10.dtd">
<svg version="1.0" xmlns="http://www.w3.org/2000/svg"
 width="1024.000000pt" height="1024.000000pt" viewBox="0 0 1024.000000 1024.000000"
 preserveAspectRatio="xMidYMid meet">

<g transform="translate(0.000000,1024.000000) scale(0.100000,-0.100000)"
fill="#000000" stroke="none">
<path d="M4057 8590 c-21 -6 -50 -16 -65 -24 -48 -25 -122 -114 -157 -189 -36
-76 -80 -229 -90 -312 -3 -27 -10 -86 -15 -130 -6 -44 -13 -201 -17 -350 l-6
-270 -49 -54 c-82 -90 -168 -298 -168 -406 0 -19 -3 -35 -7 -35 -8 0 -138 69
-813 430 -576 308 -843 443 -950 480 -45 16 -96 25 -165 28 -95 4 -103 2 -155
-25 -191 -101 -230 -348 -116 -749 55 -192 157 -451 208 -526 16 -23 18 -39
12 -101 -14 -155 30 -437 103 -657 46 -142 156 -362 249 -501 42 -63 98 -163
124 -222 167 -375 428 -649 816 -858 91 -49 94 -52 78 -70 -23 -25 -150 -99
-254 -147 -207 -97 -383 -149 -830 -248 -162 -36 -341 -80 -397 -99 -304 -102
-476 -245 -528 -441 -57 -215 120 -442 410 -526 69 -20 101 -23 235 -22 85 0
174 5 198 11 39 10 43 9 37 -5 -17 -42 -24 -144 -15 -218 21 -188 118 -337
267 -413 110 -55 169 -66 368 -65 203 0 301 16 493 81 123 41 435 176 527 227
104 59 274 174 387 262 96 76 109 83 132 74 65 -24 298 -62 471 -76 202 -17
410 -12 570 11 579 86 1107 398 1459 864 197 260 301 460 462 896 111 299 132
349 194 480 102 211 216 361 340 444 53 36 62 38 250 65 238 34 277 46 296 93
28 67 -3 124 -113 207 -35 26 -63 50 -63 54 0 4 56 36 124 71 l125 65 41 -38
c228 -206 631 -272 910 -149 142 62 190 136 145 222 -36 70 -196 175 -353 231
-34 13 -65 26 -67 30 -3 4 46 11 108 15 113 7 227 26 282 47 206 78 342 172
457 316 69 87 99 149 106 215 4 45 3 50 -36 86 -60 57 -168 85 -327 85 -162 0
-266 -34 -432 -140 l-52 -33 6 69 c11 125 -28 167 -146 157 -132 -11 -309 -96
-435 -208 -175 -155 -305 -428 -306 -639 0 -53 -4 -67 -19 -77 -56 -35 -293
-164 -296 -161 -1 1 -6 37 -9 78 -37 408 -300 697 -689 756 -274 42 -539 -37
-813 -242 -117 -87 -342 -312 -484 -482 -68 -83 -128 -146 -131 -140 -4 6 -10
81 -13 167 -14 338 -35 629 -56 783 -25 172 -90 390 -161 530 -180 358 -745
1177 -916 1328 -87 77 -191 111 -276 90z m113 -236 c59 -37 112 -100 266 -314
227 -315 425 -625 617 -965 131 -233 172 -463 197 -1110 12 -322 18 -435 26
-487 5 -34 3 -39 -37 -67 -116 -84 -255 -57 -376 72 -32 35 -99 128 -148 208
-312 508 -480 687 -873 931 -166 103 -154 91 -147 156 18 159 73 288 156 369
80 77 79 71 79 340 0 482 50 781 144 875 30 29 39 28 96 -8z m-2527 -816 c84
-36 554 -281 1427 -746 794 -422 860 -463 1049 -653 110 -110 214 -245 306
-399 184 -308 319 -469 448 -534 86 -43 169 -60 257 -53 188 16 317 115 566
435 156 199 240 296 345 397 273 263 521 378 782 362 108 -6 193 -33 291 -91
88 -53 147 -119 196 -220 46 -97 66 -189 75 -354 8 -142 11 -148 110 -212 36
-23 65 -46 65 -50 0 -4 -56 -28 -125 -54 -141 -51 -203 -87 -293 -171 -173
-160 -293 -378 -437 -795 -154 -447 -272 -686 -459 -934 -84 -111 -262 -296
-366 -379 -98 -79 -252 -177 -376 -238 -397 -196 -786 -243 -1344 -162 -63 9
-116 17 -118 18 -1 1 9 22 23 46 44 78 27 148 -40 165 -43 11 -70 -3 -136 -72
-357 -369 -827 -634 -1294 -730 -177 -36 -361 -38 -450 -4 -183 70 -268 312
-175 500 9 19 31 61 48 93 27 49 30 61 20 87 -12 37 -52 70 -84 70 -12 0 -65
-13 -116 -30 -102 -32 -255 -60 -333 -60 -118 1 -270 50 -340 112 -123 108
-127 199 -13 304 63 57 155 109 284 157 105 40 186 61 469 122 404 87 581 144
830 265 88 43 211 112 273 154 62 42 116 76 120 76 4 0 67 -18 139 -39 135
-41 331 -85 418 -94 312 -34 459 -35 506 -3 67 43 64 148 -5 179 -21 10 -87
17 -202 21 -93 3 -208 11 -255 17 -499 62 -984 292 -1280 607 -116 123 -182
229 -288 466 -17 38 -70 127 -117 198 -152 229 -243 439 -295 678 -19 88 -23
136 -24 295 l0 190 -44 80 c-123 227 -251 642 -251 815 1 166 77 226 213 168z
m6907 -1040 c-46 -121 -137 -233 -316 -389 -57 -50 -104 -88 -104 -85 0 2 13
44 30 93 45 133 124 248 232 339 54 45 158 105 170 98 4 -3 -1 -28 -12 -56z
m818 46 c32 -9 28 -26 -25 -84 -89 -99 -228 -182 -358 -214 -60 -15 -307 -47
-314 -40 -13 12 252 198 367 257 129 67 261 99 330 81z m-766 -748 c94 -24
248 -89 248 -105 0 -20 -105 -34 -214 -28 -154 7 -304 53 -400 120 -27 19 -28
21 -10 28 10 4 78 8 150 8 107 1 149 -3 226 -23z"/>
<path d="M6832 5880 c-55 -33 -77 -112 -48 -168 59 -114 228 -92 252 33 8 45
-9 87 -53 125 -41 37 -101 41 -151 10z"/>
</g>
</svg>
